HIERARCHY
ROOT Hips
{
	OFFSET 0.00000 0.00000 0.00000
	CHANNELS 6 Xposition Yposition Zposition Zrotation Yrotation Xrotation 
	JOINT LHipJoint
	{
		OFFSET 0 0 0
		CHANNELS 3 Zrotation Yrotation Xrotation
		JOINT LeftHip
		{
			OFFSET 1.58161 -1.81893 0.78828
			CHANNELS 3 Zrotation Yrotation Xrotation
			JOINT LeftKnee
			{
				OFFSET 2.53374 -6.96141 0.00000
				CHANNELS 3 Zrotation Yrotation Xrotation
				JOINT LeftAnkle
				{
					OFFSET 2.63509 -7.23986 0.00000
					CHANNELS 3 Zrotation Yrotation Xrotation
					JOINT LeftToe
					{
						OFFSET 0.14115 -0.38781 2.05350
						CHANNELS 3 Zrotation Yrotation Xrotation
						End Site
						{
							OFFSET 0.00000 -0.00000 1.05543
						}
					}
				}
			}
		}
	}
	JOINT RHipJoint
	{
		OFFSET 0 0 0
		CHANNELS 3 Zrotation Yrotation Xrotation
		JOINT RightHip
		{
			OFFSET -1.11138 -1.81893 0.78828
			CHANNELS 3 Zrotation Yrotation Xrotation
			JOINT RightKnee
			{
				OFFSET -2.58392 -7.09926 0.00000
				CHANNELS 3 Zrotation Yrotation Xrotation
				JOINT RightAnkle
				{
					OFFSET -2.66423 -7.31992 0.00000
					CHANNELS 3 Zrotation Yrotation Xrotation
					JOINT RightToe
					{
						OFFSET -0.18831 -0.51739 2.12114
						CHANNELS 3 Zrotation Yrotation Xrotation
						End Site
						{
							OFFSET -0.00000 -0.00000 1.09845
						}
					}
				}
			}
		}
	}
	JOINT lowerback
	{
		OFFSET 0 0 0
		CHANNELS 3 Zrotation Yrotation Xrotation
		JOINT Chest
		{
			OFFSET -0.01511 1.97958 -0.08829
			CHANNELS 3 Zrotation Yrotation Xrotation
			JOINT Chest2
			{
				OFFSET 0.08344 1.97334 -0.04330
				CHANNELS 3 Zrotation Yrotation Xrotation
				JOINT lowerneck
				{
					OFFSET 0 0 0
					CHANNELS 3 Zrotation Yrotation Xrotation
					JOINT Neck
					{
						OFFSET 0.00559 1.76246 0.31246
						CHANNELS 3 Zrotation Yrotation Xrotation
						JOINT Head
						{
							OFFSET -0.07011 1.80354 -0.30524
							CHANNELS 3 Zrotation Yrotation Xrotation
							End Site
							{
								OFFSET -0.02385 1.83547 -0.13906
							}
						}
					}
				}
				JOINT LeftCollar
				{
					OFFSET 0 0 0
					CHANNELS 3 Zrotation Yrotation Xrotation
					JOINT LeftShoulder
					{
						OFFSET 3.20667 1.30156 -0.60240
CHANNELS 3 Zrotation Xrotation Yrotation
						JOINT LeftElbow
						{
OFFSET 0 -4.956630 0.000000
CHANNELS 3 Zrotation Xrotation Yrotation
							JOINT LeftWrist
							{
OFFSET 0 -3.381770 0.000000
CHANNELS 3 Zrotation Xrotation Yrotation
								JOINT lhand
								{
									OFFSET 0 0 0
CHANNELS 3 Zrotation Xrotation Yrotation
									JOINT LFingers
									{
OFFSET 0 -0.662910 0.000000
CHANNELS 3 Zrotation Xrotation Yrotation
										End Site
										{
OFFSET 0 -0.534450 0.000000
										}
									}
								}
								JOINT LThumb
								{
OFFSET 0 0.000000 0.000000
CHANNELS 3 Zrotation Xrotation Yrotation
									End Site
									{
OFFSET 0 -0.542610 0.542610
									}
								}
							}
						}
					}
				}
				JOINT RightCollar
				{
					OFFSET 0 0 0
					CHANNELS 3 Zrotation Yrotation Xrotation
					JOINT RightShoulder
					{
						OFFSET -3.06877 1.34672 -0.60964
CHANNELS 3 Zrotation Xrotation Yrotation
						JOINT RightElbow
						{
OFFSET 0 -5.083650 0.000000
CHANNELS 3 Zrotation Xrotation Yrotation
							JOINT RightWrist
							{
OFFSET 0 -3.359840 0.000000
CHANNELS 3 Zrotation Xrotation Yrotation
								JOINT rhand
								{
									OFFSET 0 0 0
CHANNELS 3 Zrotation Xrotation Yrotation
									JOINT RFingers
									{
OFFSET 0 -0.820760 0.000000
CHANNELS 3 Zrotation Xrotation Yrotation
										End Site
										{
OFFSET 0 -0.661720 0.000000
										}
									}
								}
								JOINT RThumb
								{
OFFSET 0 0.000000 0.000000
CHANNELS 3 Zrotation Xrotation Yrotation
									End Site
									{
OFFSET 0 -0.671820 0.671820
									}
								}
							}
						}
					}
				}
			}
		}
	}
}
MOTION
Frames: 11
Frame Time: 0.008333333333333333
-5.771476 17.825222 3.819147 -13.111905 41.444947 0.490116 0.000000 0.000000 0.000000 3.128346 19.089078 -14.913859 3.815180 11.910377 35.415650 -0.476920 12.627592 -8.433103 3.520624 -11.492869 -33.961567 0.000000 0.000000 0.000000 24.530409 26.390778 -22.089490 -2.565604 -9.956160 28.834912 1.649211 22.554169 3.313339 -1.970363 -8.803881 25.183871 -15.115355 -8.468233 4.519726 -2.810954 -11.817243 1.117631 5.421520 -5.929195 1.093042 2.894135 20.320585 -6.129764 -14.339901 29.982423 13.877012 -1.856200 13.458732 7.974552 0.000000 0.000000 0.000000 -87.548266 -51.024292 -170.505861 18.840175 -29.219474 4.952658 26.238976 8.085522 -0.496428 0.000000 0.000000 0.000000 -7.125000 0.000000 0.000000 0.439071 -59.466511 -179.845864 0.000000 0.000000 0.000000 -29.602300 -43.996521 1.226328 -117.753894 -56.879095 -83.783741 -74.188233 -57.663375 -22.628966 0.000000 0.000000 0.000000 7.125000 0.000000 0.000000 -25.786704 -22.434868 -36.496792
-5.771152 17.826424 3.843296 -13.034699 41.270235 0.540438 0.000000 0.000000 0.000000 3.210759 19.128016 -14.772382 3.812665 11.906888 35.403335 -0.485319 12.639644 -8.068332 3.577906 -11.575835 -34.248187 0.000000 0.000000 0.000000 24.593040 26.436297 -22.000382 -2.570845 -9.965561 28.865304 1.665707 22.623742 3.499713 -2.060888 -8.990613 25.766691 -15.054798 -8.449727 4.556525 -2.914556 -11.807682 1.017771 5.305342 -5.906554 0.928734 2.948556 20.310158 -5.903693 -14.297037 29.896881 13.640866 -1.898441 13.458035 7.849726 0.000000 0.000000 0.000000 -88.068743 -50.635092 -170.832379 19.034867 -29.461658 5.048121 26.654514 7.930192 -0.083356 0.000000 0.000000 0.000000 -7.125000 0.000000 0.000000 -0.124338 -59.927281 42.923596 0.000000 0.000000 0.000000 -30.870990 -43.932095 0.255508 -118.355497 -56.731578 -84.287026 -74.503905 -57.956014 -22.859479 0.000000 0.000000 0.000000 7.125000 0.000000 0.000000 -25.924987 -23.163934 -36.862326
-5.771329 17.826171 3.867392 -12.916033 41.110301 0.624001 0.000000 0.000000 0.000000 3.247245 19.162642 -14.659485 3.809082 11.901960 35.385937 -0.501878 12.713140 -7.489729 3.765208 -11.837218 -35.163837 0.000000 0.000000 0.000000 24.610828 26.517153 -21.913937 -2.576369 -9.975453 28.897292 1.677466 22.672779 3.636377 -2.136416 -9.144296 26.247903 -15.016228 -8.441657 4.597822 -3.033420 -11.811610 0.931986 5.182860 -5.891973 0.780838 2.993686 20.307470 -5.763716 -14.243036 29.827446 13.426354 -1.923925 13.457835 7.745169 0.000000 0.000000 0.000000 -88.643715 -50.259702 -171.312010 19.203433 -29.670451 5.131237 27.067083 7.646120 0.283717 0.000000 0.000000 0.000000 -7.125000 0.000000 0.000000 -0.694057 -60.338934 179.738404 0.000000 0.000000 0.000000 -32.079208 -43.873624 -0.719593 -118.996856 -56.570341 -84.822728 -74.654640 -57.845763 -23.026099 0.000000 0.000000 0.000000 7.125000 0.000000 0.000000 -25.975723 -23.585025 -37.023691
-5.772057 17.826383 3.892216 -12.753175 40.968472 0.755092 0.000000 0.000000 0.000000 3.234866 19.184759 -14.579561 3.806413 11.898314 35.373076 -0.520116 12.808483 -6.864499 3.961062 -12.107080 -36.113784 0.000000 0.000000 0.000000 24.579679 26.631510 -21.843670 -2.581805 -9.985143 28.928675 1.685119 22.706412 3.718637 -2.189132 -9.249396 26.578635 -15.027280 -8.457295 4.624463 -3.142550 -11.843823 0.863924 5.088192 -5.895344 0.677839 2.963841 20.329588 -5.740443 -14.166791 29.797669 13.215535 -1.918167 13.467037 7.650731 0.000000 0.000000 0.000000 -49.057749 -49.934783 -171.992992 19.352071 -29.853730 5.204969 27.501225 7.296714 0.533713 0.000000 0.000000 0.000000 -7.125000 0.000000 0.000000 -1.301063 -60.621161 179.504405 0.000000 0.000000 0.000000 -33.270149 -43.866973 -1.696007 -119.645077 -56.403464 -85.363340 -74.623188 -57.257332 -23.089270 0.000000 0.000000 0.000000 7.125000 0.000000 0.000000 -25.938196 -23.623780 -36.967789
-5.773101 17.831607 3.919006 -12.571539 40.839521 0.925833 0.000000 0.000000 0.000000 3.211956 19.221847 -14.507250 3.808503 11.901075 35.382927 -0.513549 12.735650 -6.863828 3.710623 -11.763361 -34.902108 0.000000 0.000000 0.000000 24.525502 26.753670 -21.802776 -2.587178 -9.994769 28.959868 1.692581 22.741187 3.789605 -2.232713 -9.334766 26.848402 -15.119218 -8.497294 4.598195 -3.203592 -11.900015 0.809373 5.069462 -5.916985 0.650079 2.814666 20.384885 -5.784099 -14.068660 29.811475 12.960245 -1.885258 13.493305 7.536182 0.000000 0.000000 0.000000 218.802337 -49.694493 -172.867589 19.513335 -30.051410 5.285489 27.995761 7.087318 0.547146 0.000000 0.000000 0.000000 -7.125000 0.000000 0.000000 -1.990667 -60.637578 179.240906 0.000000 0.000000 0.000000 -34.548763 -43.906822 -2.686123 -120.203342 -56.255110 -85.827951 -74.521699 -56.317513 -22.946961 0.000000 0.000000 0.000000 7.125000 0.000000 0.000000 -25.912152 -23.302074 -36.866971
-5.773904 17.838220 3.945252 -12.359022 40.698302 1.111017 0.000000 0.000000 0.000000 3.167230 19.285708 -14.433791 3.816152 11.911692 35.420214 -0.500334 12.603531 -6.974173 3.420539 -11.341016 -33.445493 0.000000 0.000000 0.000000 24.455854 26.822165 -21.761822 -2.590194 -10.000045 28.976980 1.707235 22.821046 3.866616 -2.252422 -9.373119 26.969743 -15.243185 -8.520855 4.573257 -3.259438 -11.936928 0.746664 5.073877 -5.928413 0.616456 2.751973 20.412865 -5.717522 -14.122763 29.792404 12.622765 -1.919974 13.508634 7.411843 0.000000 0.000000 0.000000 269.132816 -49.429847 -173.602524 19.656710 -30.226306 5.357487 28.450470 7.055538 0.638115 0.000000 0.000000 0.000000 -7.125000 0.000000 0.000000 -2.633435 -60.742108 178.988346 0.000000 0.000000 0.000000 -35.858682 -43.919839 -3.687359 -120.672709 -56.127486 -86.217926 -74.710837 -56.003246 -22.922861 0.000000 0.000000 0.000000 7.125000 0.000000 0.000000 -26.040578 -23.528868 -37.121989
-5.774651 17.843828 3.970354 -12.184338 40.552589 1.274105 0.000000 0.000000 0.000000 3.138311 19.378433 -14.407707 3.827105 11.926749 35.473270 -0.498460 12.557162 -6.767260 3.376932 -11.277964 -33.227545 0.000000 0.000000 0.000000 24.414651 26.884685 -21.717628 -2.590098 -9.999846 28.976342 1.720423 22.892384 3.938806 -2.264703 -9.396926 27.045049 -15.329518 -8.520397 4.548841 -3.303896 -11.941935 0.679726 5.074052 -5.923208 0.566628 2.713934 20.412976 -5.599996 -14.212470 29.739040 12.285303 -1.976530 13.509300 7.285942 0.000000 0.000000 0.000000 268.416121 -49.092066 -174.213478 19.775971 -30.371347 5.417633 28.874373 7.071247 0.824209 0.000000 0.000000 0.000000 -7.125000 0.000000 0.000000 -3.247255 -60.955745 178.734989 0.000000 0.000000 0.000000 -37.184891 -43.890515 -4.734994 -121.129931 -56.000697 -86.597283 -75.001732 -56.155386 -23.146580 0.000000 0.000000 0.000000 7.125000 0.000000 0.000000 -26.167621 -24.211128 -37.449867
-5.775484 17.847342 3.994328 -12.079050 40.409773 1.396006 0.000000 0.000000 0.000000 3.149890 19.488620 -14.435896 3.840362 11.944811 35.537121 -0.510875 12.624848 -6.178551 3.616014 -11.630246 -34.437348 0.000000 0.000000 0.000000 24.423585 26.963019 -21.666278 -2.586764 -9.993993 28.957359 1.727764 22.927499 4.003692 -2.278277 -9.423147 27.128029 -15.353958 -8.499609 4.525234 -3.332610 -11.918790 0.612277 5.061989 -5.903616 0.501293 2.666131 20.395040 -5.477515 -14.274733 29.666103 11.996056 -2.026284 13.499249 7.167708 0.000000 0.000000 0.000000 267.735923 -48.683486 -174.725093 19.873669 -30.489767 5.467146 29.281207 7.066887 1.100896 0.000000 0.000000 0.000000 -7.125000 0.000000 0.000000 -3.853647 -61.273854 178.470542 0.000000 0.000000 0.000000 -38.518285 -43.818678 -5.828890 -121.597382 -55.868787 -86.984628 -75.302305 -56.590155 -23.592839 0.000000 0.000000 0.000000 7.125000 0.000000 0.000000 -26.240755 -25.189403 -37.733637
-5.776902 17.846894 4.018431 -12.097930 40.298582 1.434587 0.000000 0.000000 0.000000 3.274662 19.545036 -14.467462 3.853944 11.963392 35.602790 -0.521472 12.703054 -5.627897 3.814963 -11.908819 -35.411867 0.000000 0.000000 0.000000 24.525969 27.097269 -21.591356 -2.581093 -9.983919 28.924673 1.719779 22.864292 4.066824 -2.314320 -9.492100 27.347126 -15.305079 -8.495057 4.505459 -3.332684 -11.914089 0.558920 5.041094 -5.895258 0.444205 2.519942 20.418472 -5.511544 -14.153991 29.663043 11.883971 -1.985315 13.508876 7.095322 0.000000 0.000000 0.000000 267.071766 -48.310364 -175.260673 19.977471 -30.615136 5.519905 29.735968 6.884132 1.402975 0.000000 0.000000 0.000000 -7.125000 0.000000 0.000000 -4.546086 -61.623395 178.157194 0.000000 0.000000 0.000000 -39.832196 -43.734502 -6.901616 -122.067367 -55.733045 -87.373272 -75.414092 -56.501949 -23.865964 0.000000 0.000000 0.000000 7.125000 0.000000 0.000000 -26.237322 -25.680357 -37.802516
-5.777671 17.848627 4.041828 -12.032066 40.203716 1.499097 0.000000 0.000000 0.000000 3.356296 19.501563 -14.399846 3.865345 11.978968 35.657734 -0.519634 12.663220 -5.310790 3.867054 -11.981367 -35.666067 0.000000 0.000000 0.000000 24.569717 27.170701 -21.500934 -2.576069 -9.974964 28.895642 1.719396 22.846462 4.151466 -2.347064 -9.554217 27.544949 -15.293268 -8.521209 4.515797 -3.393694 -11.954765 0.514109 4.978122 -5.907820 0.382521 2.462622 20.474729 -5.565138 -14.068490 29.704182 11.760393 -1.953127 13.538892 7.044623 0.000000 0.000000 0.000000 266.539675 -48.031592 -175.773210 20.029296 -30.677625 5.546322 30.544436 6.939990 1.680598 0.000000 0.000000 0.000000 -7.125000 0.000000 0.000000 -5.769499 -61.950129 177.612069 0.000000 0.000000 0.000000 -40.966602 -43.691165 -7.809097 -122.465749 -55.615867 -87.702218 -75.611153 -56.194930 -23.908844 0.000000 0.000000 0.000000 7.125000 0.000000 0.000000 -26.357056 -26.005301 -38.051665
-5.778134 17.852115 4.064197 -11.961958 40.105076 1.556621 0.000000 0.000000 0.000000 3.440905 19.431525 -14.287364 3.873582 11.990221 35.697406 -0.512438 12.571317 -5.139092 3.822591 -11.919827 -35.449838 0.000000 0.000000 0.000000 24.615300 27.196865 -21.418800 -2.572460 -9.968522 28.874831 1.728186 22.884104 4.255795 -2.387452 -9.630083 27.787105 -15.263778 -8.546778 4.541772 -3.482876 -11.997122 0.466372 4.881127 -5.919209 0.299579 2.497420 20.515970 -5.564280 -14.048948 29.717025 11.577382 -1.958243 13.561588 6.987183 0.000000 0.000000 0.000000 266.099930 -47.773883 -176.269644 20.050099 -30.702666 5.556933 31.547156 7.319179 1.835907 0.000000 0.000000 0.000000 -7.125000 0.000000 0.000000 -7.265508 -62.137640 176.962641 0.000000 0.000000 0.000000 -41.988109 -43.620953 -8.643046 -122.888989 -55.489069 -88.051172 -75.837466 -56.010846 -24.005341 0.000000 0.000000 0.000000 7.125000 0.000000 0.000000 -26.481569 -26.434489 -38.321304
